<?xml version="1.0" encoding="UTF-8"?>
<svg id="Layer_1" data-name="Layer 1" xmlns="http://www.w3.org/2000/svg" viewBox="0 0 624.98 492.15">
  <defs>
    <style>
      .cls-1 {
        fill: #84bd00;
      }
    </style>
  </defs>
  <path class="cls-1" d="M612.08,94.4h-37.16c-4.64,0-8.4,3.76-8.4,8.4v135.48c0,29.8-24.16,53.95-53.95,53.95h0s-67.43,0-67.43,0l-51.47-51.47c-1.57-1.57-3.71-2.46-5.93-2.46h0s-39.41-.03-39.41-.03c1.74-8.59,2.66-17.47,2.69-26.55.21-72.11-57.11-132.2-129.16-135.19-77.12-3.19-140.64,58.38-140.64,134.78,0,30.35,10.03,58.37,26.95,80.92h-.3c-59.58.02-107.87,48.31-107.87,107.91v90.33c0,1.5,1.81,2.25,2.87,1.19l48.63-48.62c1.57-1.57,2.46-3.71,2.46-5.94v-36.96c0-29.78,24.13-53.93,53.92-53.95,0,0,107.37.04,108.25.04,44.14,0,83.34-21.21,107.94-53.99h112.04l51.47,51.49c1.57,1.58,3.71,2.46,5.94,2.46h21.82v-.03c58.32-1.47,105.14-49.2,105.14-107.87V102.8c0-4.64-3.76-8.4-8.4-8.4ZM216.12,292.23h-.3c-45.86-.17-82.71-38.46-80.54-84.82,1.94-41.42,35.56-75.03,76.98-76.96,46.44-2.16,84.79,34.86,84.79,80.84s-36.24,80.93-80.93,80.93Z"/>
  <circle class="cls-1" cx="593.5" cy="31.48" r="31.48" transform="translate(2.62 95.47) rotate(-9.22)"/>
  <circle class="cls-1" cx="512.57" cy="31.48" r="31.48"/>
</svg>